# xmcd
#
# Track frame offsets:
#	150
#	11079
#	24211
#	37105
#	50851
#	61666
#	75509
#	87958
#	96317
#	109852
#	123330
#	134706
#	151355
#	168140
#
# Disc length: 2413
#
# Revision: 1
# Processed by: cddbd v1.5.1PL0 Copyright (c) Steve Scherf et al.
# Submitted via: CDex 1.40Beta9
# Normalized: r0:TDELIM( - )
#
DISCID=b1096b0e
DTITLE=Various Artist - More Country Gold 1
DYEAR=1998
DGENRE=Country
TTITLE0=Roger Miller - King of the Road
TTITLE1=Conway Twitter - Danny Boy
TTITLE2=Merle Haggard - The fightin' side of me
TTITLE3=Bobby Bare - Marie Laveau
TTITLE4=The Everley Brothers - Devoted to you
TTITLE5=The Kendalls - Crying time
TTITLE6=Bobby Bare - 500 Miles away from home
TTITLE7=Boxcar Willie - Hey good lookin'
TTITLE8=The Jordanaires - Are you lonesome tonight
TTITLE9=T. Graham Brown - I wish that I could hurt that way
TTITLE10=Mel McDaniel - Stand up
TTITLE11=Lee Greenwood - Ring on her finger, time on her hands
TTITLE12=J.J. Barrie - No charge
TTITLE13=Patsy Cline - Life's railway to heaven
EXTD=YEAR: 1998 ID3G: 2
EXTT0=
EXTT1=
EXTT2=
EXTT3=
EXTT4=
EXTT5=
EXTT6=
EXTT7=
EXTT8=
EXTT9=
EXTT10=
EXTT11=
EXTT12=
EXTT13=
PLAYORDER=
